<?xml version="1.0" standalone="no"?>
<!DOCTYPE svg PUBLIC "-//W3C//DTD SVG 20010904//EN"
 "http://www.w3.org/TR/2001/REC-SVG-20010904/DTD/svg10.dtd">
<svg version="1.0" xmlns="http://www.w3.org/2000/svg"
 width="500.000000pt" height="500.000000pt" viewBox="0 0 500.000000 500.000000"
 preserveAspectRatio="xMidYMid meet">
<metadata>
Created by potrace 1.11, written by Peter Selinger 2001-2013
</metadata>
<g transform="translate(0.000000,500.000000) scale(0.100000,-0.100000)"
fill="#000000" stroke="none">
<path d="M2310 3900 c-409 -57 -737 -262 -966 -605 -185 -277 -299 -595 -359
-1000 -13 -87 -24 -125 -55 -187 -56 -113 -73 -202 -68 -356 4 -110 9 -140 37
-221 71 -209 189 -354 349 -429 49 -23 70 -27 152 -27 82 0 104 4 160 28 36
16 81 28 101 28 28 -1 45 7 81 38 110 97 120 224 47 586 -74 367 -129 539
-199 618 -62 70 -100 78 -219 48 -87 -23 -88 -21 -12 134 164 337 377 580 645
733 425 243 894 170 1282 -200 152 -146 297 -353 393 -561 62 -135 63 -127
-11 -109 -99 24 -167 22 -206 -8 -91 -68 -154 -247 -237 -670 -68 -345 -60
-458 40 -558 47 -47 57 -52 91 -51 24 1 65 -10 104 -27 221 -95 468 27 605
300 60 121 85 209 92 336 7 130 -13 241 -64 350 -27 59 -38 99 -49 189 -116
917 -521 1467 -1183 1602 -110 23 -441 34 -551 19z"/>
</g>
</svg>
